<?xml version="1.0" encoding="UTF-8"?>
<svg version="1.1" xmlns="http://www.w3.org/2000/svg" width="1540" height="767">
<path d="M0 0 C7.92498722 7.2559948 11.19183273 17.44338799 11.92259598 27.92833328 C11.98570706 30.65884576 11.99000058 33.38261091 11.96923828 36.11376953 C11.96953033 37.13935471 11.96982239 38.16493988 11.97012329 39.22160339 C11.9687416 42.57621025 11.95323543 45.9305887 11.9375 49.28515625 C11.93376574 51.62498859 11.93092072 53.96482251 11.92892456 56.30465698 C11.92132064 62.43664942 11.90170016 68.56854578 11.8795166 74.70050049 C11.85898813 80.96828919 11.84990791 87.23609355 11.83984375 93.50390625 C11.81845105 105.78260089 11.7832955 118.06119927 11.7421875 130.33984375 C20.3221875 130.33984375 28.9021875 130.33984375 37.7421875 130.33984375 C37.7421875 131.98984375 37.7421875 133.63984375 37.7421875 135.33984375 C11.0121875 135.33984375 -15.7178125 135.33984375 -43.2578125 135.33984375 C-43.2578125 133.68984375 -43.2578125 132.03984375 -43.2578125 130.33984375 C-35.0078125 130.33984375 -26.7578125 130.33984375 -18.2578125 130.33984375 C-18.29819585 115.535515 -18.35509469 100.73149512 -18.44171524 85.9273634 C-18.48141801 79.05256479 -18.5138547 72.17787919 -18.52880859 65.30297852 C-18.54327169 58.66330831 -18.57848286 52.02395291 -18.62612152 45.38442421 C-18.64091245 42.85644903 -18.64885219 40.32842381 -18.64969635 37.8004055 C-18.65207452 34.24831534 -18.67922492 30.697187 -18.71191406 27.14526367 C-18.7068837 26.10947678 -18.70185333 25.07368988 -18.69667053 24.0065155 C-18.81425831 15.70055395 -20.65590894 8.36859766 -25.1953125 1.33984375 C-31.16845732 -4.45229668 -37.07369276 -5.01812169 -45.13012695 -5.04077148 C-57.65033611 -4.74341838 -68.21926994 0.90562235 -77.2578125 9.33984375 C-92.42907881 26.20250124 -94.69290646 46.14616529 -94.76953125 67.7421875 C-94.78642119 69.55922116 -94.80457704 71.37624345 -94.82392883 73.19325256 C-94.87096726 77.9227645 -94.90107272 82.65223032 -94.92736816 87.38189697 C-94.95740962 92.2293 -95.0038574 97.07654468 -95.04882812 101.92382812 C-95.13433461 111.39576765 -95.20039014 120.86769231 -95.2578125 130.33984375 C-86.6778125 130.33984375 -78.0978125 130.33984375 -69.2578125 130.33984375 C-69.2578125 131.98984375 -69.2578125 133.63984375 -69.2578125 135.33984375 C-95.9878125 135.33984375 -122.7178125 135.33984375 -150.2578125 135.33984375 C-150.2578125 133.68984375 -150.2578125 132.03984375 -150.2578125 130.33984375 C-142.0078125 130.33984375 -133.7578125 130.33984375 -125.2578125 130.33984375 C-125.2578125 86.44984375 -125.2578125 42.55984375 -125.2578125 -2.66015625 C-133.5078125 -2.66015625 -141.7578125 -2.66015625 -150.2578125 -2.66015625 C-150.2578125 -4.31015625 -150.2578125 -5.96015625 -150.2578125 -7.66015625 C-132.4378125 -7.66015625 -114.6178125 -7.66015625 -96.2578125 -7.66015625 C-95.9278125 3.22984375 -95.5978125 14.11984375 -95.2578125 25.33984375 C-93.2778125 21.70984375 -91.2978125 18.07984375 -89.2578125 14.33984375 C-79.88382563 0.43937692 -66.871043 -7.89263137 -50.4140625 -11.23828125 C-32.65777664 -13.61164619 -14.64549388 -10.7687455 0 0 Z " fill="#59794F" transform="translate(181.2578125,470.66015625)"/>
<path d="M0 0 C18.48 0 36.96 0 56 0 C56.03738281 8.07855469 56.07476563 16.15710938 56.11328125 24.48046875 C56.14357838 29.61655727 56.17473779 34.75261187 56.20898438 39.88867188 C56.26318933 48.03017461 56.31474281 56.17160718 56.34643555 64.31323242 C56.37201941 70.88155047 56.41302428 77.44967018 56.46318626 84.01784706 C56.47979438 86.51626055 56.49134617 89.01471323 56.49761391 91.51317406 C55.79239943 115.30620557 55.79239943 115.30620557 66 136 C72.0947531 141.28506368 78.44055132 141.42314813 86.19140625 141.28515625 C91.20450817 140.90981631 94.74998414 139.59323002 99 137 C100.010625 136.4225 101.02125 135.845 102.0625 135.25 C114.89322319 125.42221203 123.90812113 110.11044538 126.30041409 93.97360325 C126.88325218 88.78597167 127.16442646 83.66927547 127.20532227 78.45092773 C127.21522186 77.64982071 127.22512146 76.84871368 127.23532104 76.02333069 C127.26657587 73.41011374 127.29154887 70.79687869 127.31640625 68.18359375 C127.337007 66.35799218 127.35800423 64.53239504 127.37937927 62.70680237 C127.43427789 57.92788306 127.48382769 53.14892304 127.53222656 48.36993408 C127.58267847 43.48291447 127.63824023 38.59595318 127.69335938 33.70898438 C127.80054631 24.13937113 127.90160416 14.56970768 128 5 C119.42 5 110.84 5 102 5 C102 3.35 102 1.7 102 0 C120.15 0 138.3 0 157 0 C157 45.54 157 91.08 157 138 C165.58 138 174.16 138 183 138 C183 139.65 183 141.3 183 143 C164.85 143 146.7 143 128 143 C127.67 133.43 127.34 123.86 127 114 C125.02 117.63 123.04 121.26 121 125 C112.15857906 136.52611518 100.77082018 145.83690918 86 148 C68.64976736 149.03872835 51.3827673 147.49738634 37.4765625 135.89453125 C27.42547213 125.33901813 25.66374462 111.32273905 25.77294922 97.29614258 C25.77265717 96.28991852 25.77236511 95.28369446 25.77206421 94.24697876 C25.77344353 90.96273796 25.78893819 87.6787318 25.8046875 84.39453125 C25.80842261 82.10096867 25.81126723 79.80740448 25.81326294 77.51383972 C25.82086019 71.50844841 25.84047477 65.50315547 25.8626709 59.49780273 C25.88321391 53.35727265 25.89228267 47.2167265 25.90234375 41.07617188 C25.92372464 29.05073131 25.95887458 17.02538927 26 5 C17.42 5 8.84 5 0 5 C0 3.35 0 1.7 0 0 Z " fill="#5A784E" transform="translate(911,463)"/>
<path d="M0 0 C18.48 0 36.96 0 56 0 C56.03738281 8.07855469 56.07476562 16.15710938 56.11328125 24.48046875 C56.14357838 29.61655727 56.17473779 34.75261187 56.20898438 39.88867188 C56.26318933 48.03017461 56.31474281 56.17160718 56.34643555 64.31323242 C56.37201941 70.88155047 56.41302428 77.44967018 56.46318626 84.01784706 C56.47979438 86.51626055 56.49134617 89.01471323 56.49761391 91.51317406 C55.79239943 115.30620557 55.79239943 115.30620557 66 136 C72.0947531 141.28506368 78.44055132 141.42314813 86.19140625 141.28515625 C91.20450817 140.90981631 94.74998414 139.59323002 99 137 C100.010625 136.4225 101.02125 135.845 102.0625 135.25 C114.89322319 125.42221203 123.90812113 110.11044538 126.30041409 93.97360325 C126.88325218 88.78597167 127.16442646 83.66927547 127.20532227 78.45092773 C127.21522186 77.64982071 127.22512146 76.84871368 127.23532104 76.02333069 C127.26657587 73.41011374 127.29154887 70.79687869 127.31640625 68.18359375 C127.337007 66.35799218 127.35800423 64.53239504 127.37937927 62.70680237 C127.43427789 57.92788306 127.48382769 53.14892304 127.53222656 48.36993408 C127.58267847 43.48291447 127.63824023 38.59595318 127.69335938 33.70898438 C127.80054631 24.13937113 127.90160416 14.56970768 128 5 C119.42 5 110.84 5 102 5 C102 3.35 102 1.7 102 0 C120.15 0 138.3 0 157 0 C157 45.54 157 91.08 157 138 C165.58 138 174.16 138 183 138 C183 139.65 183 141.3 183 143 C164.85 143 146.7 143 128 143 C127.67 133.43 127.34 123.86 127 114 C125.02 117.63 123.04 121.26 121 125 C112.15857906 136.52611518 100.77082018 145.83690918 86 148 C68.64976736 149.03872835 51.3827673 147.49738634 37.4765625 135.89453125 C27.42547213 125.33901813 25.66374462 111.32273905 25.77294922 97.29614258 C25.77265717 96.28991852 25.77236511 95.28369446 25.77206421 94.24697876 C25.77344353 90.96273796 25.78893819 87.6787318 25.8046875 84.39453125 C25.80842261 82.10096867 25.81126723 79.80740448 25.81326294 77.51383972 C25.82086019 71.50844841 25.84047477 65.50315547 25.8626709 59.49780273 C25.88321391 53.35727265 25.89228267 47.2167265 25.90234375 41.07617188 C25.92372464 29.05073131 25.95887458 17.02538927 26 5 C17.42 5 8.84 5 0 5 C0 3.35 0 1.7 0 0 Z " fill="#5A784E" transform="translate(292,463)"/>
<path d="M0 0 C9.2473575 9.90319846 11.5604231 22.65473426 11.52124023 35.71166992 C11.52646698 36.63822891 11.53169373 37.5647879 11.53707886 38.51942444 C11.5472455 40.51198338 11.55308631 42.50456833 11.55496025 44.49715233 C11.55865126 47.65466369 11.57544955 50.81186861 11.59571838 53.96931458 C11.65088857 62.9396902 11.68185997 71.91010864 11.70629883 80.88061523 C11.72218989 86.3841133 11.75241471 91.88738909 11.79106331 97.39077187 C11.80268816 99.48106844 11.80864344 101.57140473 11.80874443 103.66173363 C11.80893692 106.58356313 11.82723246 109.50477963 11.84936523 112.42651367 C11.84478806 113.28330719 11.84021088 114.14010071 11.835495 115.02285767 C11.89966784 120.36357214 12.70456133 124.14677879 15.25 128.875 C19.97190199 131.23595099 26.29537982 130.46785831 31.19921875 128.98046875 C33.59077646 128.01497541 35.93060992 127.00199214 38.25 125.875 C39.24 127.525 40.23 129.175 41.25 130.875 C39.73582906 131.84382567 38.21325846 132.79952752 36.6875 133.75 C35.84058594 134.28367187 34.99367188 134.81734375 34.12109375 135.3671875 C24.4561172 140.44294389 11.12770115 140.45859267 0.625 137.8125 C-6.60070412 135.12617971 -11.21045811 130.44412884 -14.625 123.625 C-14.99367188 122.79484375 -15.36234375 121.9646875 -15.7421875 121.109375 C-16.77046768 118.66713143 -16.77046768 118.66713143 -18.75 115.875 C-19.10191406 116.52726563 -19.45382812 117.17953125 -19.81640625 117.8515625 C-25.42328996 127.77706421 -32.55203752 134.14065954 -43.67749023 137.44799805 C-49.80980721 138.98570067 -55.76097506 139.22294575 -62.0625 139.1875 C-63.07707275 139.18331055 -64.09164551 139.17912109 -65.13696289 139.17480469 C-77.31497844 138.99110358 -89.70261702 136.67785911 -98.75 127.875 C-105.28343935 119.53726781 -106.67480264 110.26802012 -105.75 99.875 C-103.98142791 89.82832155 -98.78515255 82.56329386 -90.56640625 76.62792969 C-78.95463179 69.40076771 -64.38604306 66.06983931 -51.41308594 62.04956055 C-39.47161941 58.45055682 -39.47161941 58.45055682 -28.37451172 52.85766602 C-26.75 51.875 -26.75 51.875 -23.75 50.875 C-22.59546184 49.04748893 -22.59546184 49.04748893 -21.75 46.875 C-21.47333496 46.24070068 -21.19666992 45.60640137 -20.91162109 44.95288086 C-18.48428186 38.43105674 -18.30022918 32.34549265 -18.375 25.4375 C-18.36339844 24.36951172 -18.35179687 23.30152344 -18.33984375 22.20117188 C-18.372428 13.31110247 -19.46091494 3.64786083 -25.75 -3.125 C-33.89300956 -8.24437733 -43.46006225 -8.28609077 -52.69140625 -6.58203125 C-57.38894597 -5.31488566 -61.54784158 -3.92756312 -64.75 -0.125 C-66.9689342 5.34388833 -66.78227572 10.37188519 -66.0625 16.12109375 C-64.51337693 29.77274078 -64.51337693 29.77274078 -67.625 35.0625 C-74.53261391 39.06891607 -80.92293978 39.2944942 -88.62109375 37.67578125 C-91.03081056 36.76937401 -92.1526881 35.87890039 -93.75 33.875 C-96.9706728 25.23003618 -96.40458355 17.23388791 -92.75 8.875 C-85.92377554 -2.33951161 -74.96510691 -9.25769105 -62.3125 -12.375 C-41.01236182 -16.31252554 -16.81650698 -15.05791802 0 0 Z M-21.88012695 56.68603516 C-25.03799751 59.09466701 -27.98602423 60.41977054 -31.66796875 61.8984375 C-32.32525467 62.16709625 -32.98254059 62.435755 -33.65974426 62.71255493 C-35.74920172 63.56633237 -37.84268459 64.40946227 -39.9375 65.25 C-59.39782017 72.4497069 -59.39782017 72.4497069 -73 87.23828125 C-77.04742228 96.72442723 -77.29160896 107.22041287 -74.0625 117 C-71.10320136 124.02312424 -66.42697023 127.53651489 -59.75 130.875 C-48.47583179 131.74034186 -40.04277218 131.41290392 -30.76953125 124.37109375 C-22.55930474 117.10618117 -19.30529896 105.98302448 -18.57530212 95.32420349 C-18.52126809 92.71118322 -18.52434099 90.10557004 -18.5546875 87.4921875 C-18.5575174 86.55190704 -18.56034729 85.61162659 -18.56326294 84.64285278 C-18.57434022 81.67843173 -18.59942049 78.71432769 -18.625 75.75 C-18.63504593 73.72396274 -18.64416894 71.69792068 -18.65234375 69.671875 C-18.67423856 64.73946365 -18.70868043 59.80728532 -18.75 54.875 C-20.08901294 54.76704381 -20.08901294 54.76704381 -21.88012695 56.68603516 Z " fill="#59784E" transform="translate(1472.75,472.125)"/>
<path d="M0 0 C0.69867187 0.31710937 1.39734375 0.63421875 2.1171875 0.9609375 C8.51327013 4.36413618 12.38331038 10.11073868 14.64453125 16.94921875 C15.96950797 24.5933152 15.6797824 32.13107286 12 39 C5.8269728 44.12229917 -0.21549615 44.6815925 -8 44 C-12.13459317 42.90399267 -14.56352806 41.65470791 -17 38 C-17.69675564 33.41227133 -17.30422422 29.26686203 -15.5 25 C-13.67895005 20.65549513 -13.32494806 16.66318776 -14 12 C-15.7119187 8.23601432 -15.7119187 8.23601432 -19 6 C-25.94583163 4.94476789 -30.88878589 6.21602221 -36.6875 10.12109375 C-48.72850353 19.90440912 -55.15028133 37.00471811 -57 52 C-57.15344955 54.92690339 -57.18392743 57.85047543 -57.20532227 60.78100586 C-57.21522186 61.63058868 -57.22512146 62.48017151 -57.23532104 63.35549927 C-57.26671224 66.14191984 -57.29160424 68.92835741 -57.31640625 71.71484375 C-57.33699514 73.6554049 -57.35799211 75.59596176 -57.37937927 77.53651428 C-57.43440014 82.62782299 -57.48389703 87.71917083 -57.53222656 92.81054688 C-57.58258809 98.01240494 -57.63819746 103.21420664 -57.69335938 108.41601562 C-57.80069629 118.61063059 -57.90170959 128.8052938 -58 139 C-48.43 139 -38.86 139 -29 139 C-29 140.65 -29 142.3 -29 144 C-57.05 144 -85.1 144 -114 144 C-114 142.35 -114 140.7 -114 139 C-105.42 139 -96.84 139 -88 139 C-88 95.11 -88 51.22 -88 6 C-96.58 6 -105.16 6 -114 6 C-114 4.35 -114 2.7 -114 1 C-95.85 1 -77.7 1 -59 1 C-58.67 10.24 -58.34 19.48 -58 29 C-56.02 25.04 -54.04 21.08 -52 17 C-45.11396696 7.52267117 -36.01829546 -0.40446682 -24.22265625 -2.75390625 C-15.72636732 -3.69462014 -7.82824551 -3.66111862 0 0 Z " fill="#5A784E" transform="translate(1282,462)"/>
<path d="M0 0 C0.69867187 0.31710937 1.39734375 0.63421875 2.1171875 0.9609375 C8.51327013 4.36413618 12.38331038 10.11073868 14.64453125 16.94921875 C15.96950797 24.5933152 15.6797824 32.13107286 12 39 C5.8269728 44.12229917 -0.21549615 44.6815925 -8 44 C-12.13459317 42.90399267 -14.56352806 41.65470791 -17 38 C-17.69675564 33.41227133 -17.30422422 29.26686203 -15.5 25 C-13.67895005 20.65549513 -13.32494806 16.66318776 -14 12 C-15.7119187 8.23601432 -15.7119187 8.23601432 -19 6 C-25.94583163 4.94476789 -30.88878589 6.21602221 -36.6875 10.12109375 C-48.72850353 19.90440912 -55.15028133 37.00471811 -57 52 C-57.15344955 54.92690339 -57.18392743 57.85047543 -57.20532227 60.78100586 C-57.21522186 61.63058868 -57.22512146 62.48017151 -57.23532104 63.35549927 C-57.26671224 66.14191984 -57.29160424 68.92835741 -57.31640625 71.71484375 C-57.33699514 73.6554049 -57.35799211 75.59596176 -57.37937927 77.53651428 C-57.43440014 82.62782299 -57.48389703 87.71917083 -57.53222656 92.81054688 C-57.58258809 98.01240494 -57.63819746 103.21420664 -57.69335938 108.41601562 C-57.80069629 118.61063059 -57.90170959 128.8052938 -58 139 C-48.43 139 -38.86 139 -29 139 C-29 140.65 -29 142.3 -29 144 C-57.05 144 -85.1 144 -114 144 C-114 142.35 -114 140.7 -114 139 C-105.42 139 -96.84 139 -88 139 C-88 95.11 -88 51.22 -88 6 C-96.58 6 -105.16 6 -114 6 C-114 4.35 -114 2.7 -114 1 C-95.85 1 -77.7 1 -59 1 C-58.67 10.24 -58.34 19.48 -58 29 C-56.02 25.04 -54.04 21.08 -52 17 C-45.11396696 7.52267117 -36.01829546 -0.40446682 -24.22265625 -2.75390625 C-15.72636732 -3.69462014 -7.82824551 -3.66111862 0 0 Z " fill="#5A784E" transform="translate(663,462)"/>
<path d="M0 0 C0 15.18 0 30.36 0 46 C15.84 46 31.68 46 48 46 C48 47.65 48 49.3 48 51 C32.16 51 16.32 51 0 51 C0.12005352 70.41120745 0.12005352 70.41120745 0.2578125 89.82226562 C0.31797377 97.74647273 0.37612152 105.67066404 0.421875 113.5949707 C0.45891919 119.98819132 0.50532984 126.38128331 0.55806351 132.77439308 C0.57650622 135.20582623 0.59165095 137.63728685 0.60334396 140.06876183 C-0.49134904 164.39166608 -0.49134904 164.39166608 9.375 185.5 C15.74477928 188.13577074 22.75923608 188.02456856 29.44140625 186.41015625 C36.40756729 183.45192348 40.56147234 177.23305458 43.546875 170.5234375 C44.77028155 167.36869813 45.92414712 164.20772726 47 161 C48.98 161.33 50.96 161.66 53 162 C51.17347807 172.29494181 47.56134255 181.51713367 39 188 C25.92495146 195.8777679 9.88270673 195.94849057 -4.75 192.375 C-12.99332501 190.16651425 -19.29706985 186.22235702 -24 179 C-26.97346847 173.07437825 -29.12755616 167.84143844 -29.12025452 161.15313721 C-29.12162918 160.18001083 -29.12300385 159.20688446 -29.12442017 158.20426941 C-29.12082489 157.14331558 -29.11722961 156.08236176 -29.11352539 154.98925781 C-29.11367142 153.86701309 -29.11381744 152.74476837 -29.1139679 151.58851624 C-29.11327087 147.87669954 -29.10548822 144.16493294 -29.09765625 140.453125 C-29.09579133 137.88051379 -29.09436777 135.30790222 -29.09336853 132.73529053 C-29.08993965 126.65449266 -29.082057 120.57371548 -29.07201904 114.49292541 C-29.06083784 107.56914584 -29.05534239 100.64536542 -29.05032361 93.72157907 C-29.03987385 79.48104146 -29.02153639 65.24052506 -29 51 C-37.58 51 -46.16 51 -55 51 C-55 49.35 -55 47.7 -55 46 C-46.42 46 -37.84 46 -29 46 C-29 31.81 -29 17.62 -29 3 C-26.03 3.495 -26.03 3.495 -23 4 C-14.34818563 4.66218404 -7.40608212 0 0 0 Z " fill="#5A784E" transform="translate(795,417)"/>
<path d="M0 0 C3 0.25 3 0.25 5 2.25 C7.35798177 2.71089177 9.68800354 3.08969039 12.0625 3.4375 C30.15469346 6.49437874 45.78864626 15.48396261 59.66015625 27.26953125 C61.94321616 29.25922263 61.94321616 29.25922263 64.30859375 30.88671875 C65.14583984 31.56154297 65.14583984 31.56154297 66 32.25 C66 32.91 66 33.57 66 34.25 C66.66 34.25 67.32 34.25 68 34.25 C88.09915673 53.15005931 100.52864522 79.92900891 107 106.25 C107.59167969 105.12722656 108.18335938 104.00445312 108.79296875 102.84765625 C110.82844473 98.98849042 112.87487843 95.13522855 114.92382812 91.28320312 C115.74566795 89.73050756 116.55528765 88.17133779 117.359375 86.609375 C119.93767269 81.71434606 123.01133834 77.2087005 126.1875 72.6875 C126.62827881 72.05432861 127.06905762 71.42115723 127.52319336 70.76879883 C128.6298993 69.22375137 129.80941793 67.7313791 131 66.25 C131.66 66.25 132.32 66.25 133 66.25 C133.433125 65.3528125 133.433125 65.3528125 133.875 64.4375 C135 62.25 135 62.25 137 59.25 C137.66 59.25 138.32 59.25 139 59.25 C139.38865234 58.37408203 139.38865234 58.37408203 139.78515625 57.48046875 C146.34818444 45.43066458 161.83793423 36.58777447 173 29.25 C173.92039062 28.64285156 174.84078125 28.03570312 175.7890625 27.41015625 C193.9537311 16.12759449 216.26837227 8.62659759 237.8125 10.5 C241 11.25 241 11.25 243 14.25 C246.23265912 31.122395 244.12403212 49.03442144 236 64.25 C235.31357422 65.61125 235.31357422 65.61125 234.61328125 67 C229.95966742 75.65369351 223.88704969 82.35818748 217 89.25 C216.29359375 89.97960937 215.5871875 90.70921875 214.859375 91.4609375 C207.6275138 98.43655165 198.66140932 103.2781575 190 108.25 C188.46859375 109.13558594 188.46859375 109.13558594 186.90625 110.0390625 C166.45438151 121.02900333 143.35842065 124.88716833 120.4375 125.8125 C119.42880859 125.85568359 118.42011719 125.89886719 117.38085938 125.94335938 C114.92067425 126.04829618 112.46040825 126.15045701 110 126.25 C110.02320313 127.38695312 110.04640625 128.52390625 110.0703125 129.6953125 C110.41906425 154.16384171 105.72928376 179.09239683 88.73828125 197.81640625 C87 199.25 87 199.25 83.6875 199.8125 C81 199.25 81 199.25 79 198.25 C78.67355586 194.08783725 78.59349018 191.88686538 80.875 188.3125 C83 186.25 83 186.25 85 186.25 C85.25007812 185.72277344 85.50015625 185.19554687 85.7578125 184.65234375 C87.01114076 182.22845418 88.40432778 179.91464449 89.81787109 177.58178711 C99.640443 161.142023 101.4049625 144.03576021 101 125.25 C100.44924805 125.41008545 99.89849609 125.5701709 99.33105469 125.73510742 C78.98480842 130.22926676 57.44194513 124.80482194 40 114.25 C35.8011183 111.5207269 31.70224185 108.62969806 28 105.25 C28 104.59 28 103.93 28 103.25 C27.01 102.92 26.02 102.59 25 102.25 C23.3123083 100.34692108 21.7725389 98.46581777 20.25 96.4375 C19.8075293 95.85145996 19.36505859 95.26541992 18.90917969 94.66162109 C2.49724309 72.55489721 -3.93102336 46.90483725 -4.68798828 19.70727539 C-4.75104996 17.52618532 -4.83396816 15.34638939 -4.91796875 13.16601562 C-4.96211585 11.77347436 -5.00512898 10.38089657 -5.046875 8.98828125 C-5.08651367 7.74087158 -5.12615234 6.49346191 -5.16699219 5.20825195 C-4.93415577 1.08357529 -4.09968238 0.3416402 0 0 Z M4 10.25 C3.0556595 44.32858515 9.52720885 75.68563809 33.5 101.125 C48.11764819 114.95528072 67.04177707 121.76981331 87.01953125 121.453125 C91.76175229 121.129933 96.36339877 120.27224279 101 119.25 C97.41121114 93.15651431 86.06244917 68.33392455 69 48.25 C68.34 48.25 67.68 48.25 67 48.25 C66.7628125 47.68796875 66.525625 47.1259375 66.28125 46.546875 C64.71052303 43.73105958 62.78528536 41.77044584 60.5 39.5 C59.7059375 38.70078125 58.911875 37.9015625 58.09375 37.078125 C56.21216538 35.03076391 56.21216538 35.03076391 54 35.25 C54 34.59 54 33.93 54 33.25 C52.03667807 31.5995825 50.08871835 30.10340924 48 28.625 C47.37424072 28.1820459 46.74848145 27.7390918 46.10375977 27.28271484 C33.37405692 18.51088104 19.42005562 12.23285359 4 10.25 Z M152 55.25 C150.80117188 56.32121094 150.80117188 56.32121094 149.578125 57.4140625 C133.0308021 73.05551006 118.98356006 94.82397971 114 117.25 C146.44213572 120.52073303 177.85917321 111.24780608 203.4375 91.0625 C204.96228273 89.79640798 206.48352203 88.52602741 208 87.25 C208.62261719 86.76144531 209.24523437 86.27289063 209.88671875 85.76953125 C223.57516535 74.78801342 234.95910731 56.08874351 237.7578125 38.75390625 C238.4801382 31.28599052 238.58182256 24.35001204 236 17.25 C203.08660486 15.77381783 175.44505808 34.11323914 152 55.25 Z " fill="#4F7B41" transform="translate(665,177.75)"/>
<path d="M0 0 C3.43079612 0.81408721 5.31234165 1.30191178 7.6875 3.875 C7.6875 4.535 7.6875 5.195 7.6875 5.875 C8.615625 6.3390625 8.615625 6.3390625 9.5625 6.8125 C10.9375 7.5 12.3125 8.1875 13.6875 8.875 C13.6875 9.535 13.6875 10.195 13.6875 10.875 C14.3475 10.875 15.0075 10.875 15.6875 10.875 C15.6875 11.535 15.6875 12.195 15.6875 12.875 C16.3475 12.875 17.0075 12.875 17.6875 12.875 C31.94128476 27.6315116 41.3995055 46.95919616 45.6875 66.875 C45.95240234 68.05074585 45.95240234 68.05074585 46.22265625 69.25024414 C47.84714137 77.10506484 48.07384074 84.80791138 48.0625 92.8125 C48.06162384 93.49242004 48.06074768 94.17234009 48.05984497 94.87286377 C47.95654595 119.26644576 41.81459209 139.95605197 27.6875 159.875 C27.07777344 160.73996094 26.46804688 161.60492188 25.83984375 162.49609375 C19.58699125 170.94242982 11.51405861 176.86289789 3.12890625 183.0546875 C0.85743481 184.65699373 0.85743481 184.65699373 -0.3125 185.875 C-7.04032033 186.80297522 -7.04032033 186.80297522 -10.1171875 184.55859375 C-11.29251175 183.34806393 -12.43404816 182.10415908 -13.546875 180.8359375 C-15.26739621 178.92509315 -17.02870176 177.5000523 -19.0625 175.9375 C-35.59920169 161.55217503 -43.97240704 137.95560812 -46.0625 116.6875 C-46.17036394 114.75121075 -46.25321429 112.81338487 -46.3125 110.875 C-46.35246094 109.8025 -46.39242187 108.73 -46.43359375 107.625 C-47.11030525 72.59522802 -35.16113319 39.14732558 -13.3125 11.875 C-12.5596875 10.82699219 -11.806875 9.77898438 -11.03125 8.69921875 C-4.71857318 0.19223817 -4.71857318 0.19223817 0 0 Z M-1.3125 11.875 C-25.71076016 37.0442089 -38.03564484 73.41753502 -37.59375 107.9765625 C-37.16219502 121.11741175 -34.23756906 134.11123315 -28.3125 145.875 C-27.63380859 147.26912109 -27.63380859 147.26912109 -26.94140625 148.69140625 C-23.54271697 155.31378456 -19.49358684 161.49553821 -14.3125 166.875 C-13.6525 166.875 -12.9925 166.875 -12.3125 166.875 C-12.3125 167.535 -12.3125 168.195 -12.3125 168.875 C-10.7490396 170.54232391 -10.7490396 170.54232391 -8.6875 172.125 C-8.01460937 172.68703125 -7.34171875 173.2490625 -6.6484375 173.828125 C-4.27520147 175.16160537 -4.27520147 175.16160537 -1.37109375 174.296875 C16.22498458 166.11683348 27.93281003 147.07270938 34.4375 129.52734375 C43.89294581 101.89971302 41.33897789 71.87386649 28.875 45.625 C22.23462027 32.98795081 12.33135038 20.30771658 0.6875 11.875 C0.0275 11.875 -0.6325 11.875 -1.3125 11.875 Z " fill="#4F7A40" transform="translate(783.3125,29.125)"/>
<path d="M0 0 C4.01736192 2.3409995 6.83877062 4.66004896 8.6875 9.05078125 C8.6875 10.04078125 8.6875 11.03078125 8.6875 12.05078125 C7.0375 12.05078125 5.3875 12.05078125 3.6875 12.05078125 C3.460625 11.26703125 3.23375 10.48328125 3 9.67578125 C1.91795122 6.94895397 1.91795122 6.94895397 -0.375 5.73828125 C-5.71960373 4.48741655 -10.38142165 3.94143837 -15.25 6.73828125 C-19.49778481 11.50094907 -19.69041533 16.24804196 -19.56640625 22.390625 C-19.1434235 26.82218271 -17.55325155 29.61914485 -14.6875 32.92578125 C-10.93132693 34.70502112 -7.37885635 34.82774577 -3.3125 34.05078125 C0.81530579 30.97688332 1.73396825 28.93461064 3.6875 24.05078125 C-0.2725 23.72078125 -4.2325 23.39078125 -8.3125 23.05078125 C-8.3125 21.40078125 -8.3125 19.75078125 -8.3125 18.05078125 C-2.3725 18.05078125 3.5675 18.05078125 9.6875 18.05078125 C9.6875 24.98078125 9.6875 31.91078125 9.6875 39.05078125 C8.3675 39.05078125 7.0475 39.05078125 5.6875 39.05078125 C5.0275 37.73078125 4.3675 36.41078125 3.6875 35.05078125 C2.511875 36.00984375 2.511875 36.00984375 1.3125 36.98828125 C-3.41379676 40.70180013 -7.43537819 40.67638192 -13.3125 40.05078125 C-17.24150781 38.7559105 -19.85218191 36.56086346 -22.625 33.48828125 C-26.14304947 26.32188419 -27.0839349 19.11119297 -25.1328125 11.34375 C-23.26442726 6.1211684 -20.86990707 2.99744045 -16.125 0.11328125 C-10.59742243 -1.42719119 -5.44327787 -2.23431845 0 0 Z " fill="#5A784F" transform="translate(877.3125,693.94921875)"/>
<path d="M0 0 C4.01736192 2.3409995 6.83877062 4.66004896 8.6875 9.05078125 C8.6875 10.04078125 8.6875 11.03078125 8.6875 12.05078125 C7.0375 12.05078125 5.3875 12.05078125 3.6875 12.05078125 C3.460625 11.26703125 3.23375 10.48328125 3 9.67578125 C1.91795122 6.94895397 1.91795122 6.94895397 -0.375 5.73828125 C-5.71960373 4.48741655 -10.38142165 3.94143837 -15.25 6.73828125 C-19.49778481 11.50094907 -19.69041533 16.24804196 -19.56640625 22.390625 C-19.1434235 26.82218271 -17.55325155 29.61914485 -14.6875 32.92578125 C-10.93132693 34.70502112 -7.37885635 34.82774577 -3.3125 34.05078125 C0.81530579 30.97688332 1.73396825 28.93461064 3.6875 24.05078125 C-0.2725 23.72078125 -4.2325 23.39078125 -8.3125 23.05078125 C-8.3125 21.40078125 -8.3125 19.75078125 -8.3125 18.05078125 C-2.3725 18.05078125 3.5675 18.05078125 9.6875 18.05078125 C9.6875 24.98078125 9.6875 31.91078125 9.6875 39.05078125 C8.3675 39.05078125 7.0475 39.05078125 5.6875 39.05078125 C5.0275 37.73078125 4.3675 36.41078125 3.6875 35.05078125 C2.511875 36.00984375 2.511875 36.00984375 1.3125 36.98828125 C-3.41379676 40.70180013 -7.43537819 40.67638192 -13.3125 40.05078125 C-17.24150781 38.7559105 -19.85218191 36.56086346 -22.625 33.48828125 C-26.14304947 26.32188419 -27.0839349 19.11119297 -25.1328125 11.34375 C-23.26442726 6.1211684 -20.86990707 2.99744045 -16.125 0.11328125 C-10.59742243 -1.42719119 -5.44327787 -2.23431845 0 0 Z " fill="#5A784F" transform="translate(636.3125,693.94921875)"/>
<path d="M0 0 C2.31 0 4.62 0 7 0 C8.91318003 2.25550489 10.05891631 3.98507714 11.375 6.5625 C12.13071218 7.93012889 12.88724858 9.2973026 13.64453125 10.6640625 C14.02689941 11.3746582 14.40926758 12.08525391 14.80322266 12.81738281 C16.78032465 16.42311349 18.92906848 19.92292134 21.0625 23.4375 C22.361875 25.603125 23.66125 27.76875 25 30 C25.33 20.1 25.66 10.2 26 0 C27.65 0 29.3 0 31 0 C31 12.87 31 25.74 31 39 C28.36 39 25.72 39 23 39 C22.33411865 37.84213989 22.33411865 37.84213989 21.65478516 36.66088867 C20.00439667 33.79225346 18.35309407 30.92414857 16.70117188 28.05639648 C15.98693827 26.81604751 15.2730677 25.57548941 14.55957031 24.3347168 C13.53285999 22.5494134 12.50483853 20.7648707 11.4765625 18.98046875 C10.85861816 17.90692139 10.24067383 16.83337402 9.60400391 15.72729492 C8.46050684 13.78300181 7.25119773 11.8767966 6 10 C5.67 19.57 5.34 29.14 5 39 C3.35 39 1.7 39 0 39 C0 26.13 0 13.26 0 0 Z " fill="#59784F" transform="translate(1192,694)"/>
<path d="M0 0 C2.31 0 4.62 0 7 0 C8.91318003 2.25550489 10.05891631 3.98507714 11.375 6.5625 C12.13071218 7.93012889 12.88724858 9.2973026 13.64453125 10.6640625 C14.02689941 11.3746582 14.40926758 12.08525391 14.80322266 12.81738281 C16.78032465 16.42311349 18.92906848 19.92292134 21.0625 23.4375 C22.361875 25.603125 23.66125 27.76875 25 30 C25.33 20.1 25.66 10.2 26 0 C27.65 0 29.3 0 31 0 C31 12.87 31 25.74 31 39 C28.36 39 25.72 39 23 39 C22.33411865 37.84213989 22.33411865 37.84213989 21.65478516 36.66088867 C20.00439667 33.79225346 18.35309407 30.92414857 16.70117188 28.05639648 C15.98693827 26.81604751 15.2730677 25.57548941 14.55957031 24.3347168 C13.53285999 22.5494134 12.50483853 20.7648707 11.4765625 18.98046875 C10.85861816 17.90692139 10.24067383 16.83337402 9.60400391 15.72729492 C8.46050684 13.78300181 7.25119773 11.8767966 6 10 C5.67 19.57 5.34 29.14 5 39 C3.35 39 1.7 39 0 39 C0 26.13 0 13.26 0 0 Z " fill="#59784F" transform="translate(945,694)"/>
<path d="M0 0 C2.31 0 4.62 0 7 0 C8.91318003 2.25550489 10.05891631 3.98507714 11.375 6.5625 C12.13071218 7.93012889 12.88724858 9.2973026 13.64453125 10.6640625 C14.02689941 11.3746582 14.40926758 12.08525391 14.80322266 12.81738281 C16.78032465 16.42311349 18.92906848 19.92292134 21.0625 23.4375 C22.361875 25.603125 23.66125 27.76875 25 30 C25.33 20.1 25.66 10.2 26 0 C27.65 0 29.3 0 31 0 C31 12.87 31 25.74 31 39 C28.36 39 25.72 39 23 39 C22.33411865 37.84213989 22.33411865 37.84213989 21.65478516 36.66088867 C20.00439667 33.79225346 18.35309407 30.92414857 16.70117188 28.05639648 C15.98693827 26.81604751 15.2730677 25.57548941 14.55957031 24.3347168 C13.53285999 22.5494134 12.50483853 20.7648707 11.4765625 18.98046875 C10.85861816 17.90692139 10.24067383 16.83337402 9.60400391 15.72729492 C8.46050684 13.78300181 7.25119773 11.8767966 6 10 C5.67 19.57 5.34 29.14 5 39 C3.35 39 1.7 39 0 39 C0 26.13 0 13.26 0 0 Z " fill="#59784F" transform="translate(574,694)"/>
<path d="M0 0 C2.31 0 4.62 0 7 0 C8.91318003 2.25550489 10.05891631 3.98507714 11.375 6.5625 C12.13071218 7.93012889 12.88724858 9.2973026 13.64453125 10.6640625 C14.02689941 11.3746582 14.40926758 12.08525391 14.80322266 12.81738281 C16.78032465 16.42311349 18.92906848 19.92292134 21.0625 23.4375 C22.361875 25.603125 23.66125 27.76875 25 30 C25.33 20.1 25.66 10.2 26 0 C27.65 0 29.3 0 31 0 C31 12.87 31 25.74 31 39 C28.36 39 25.72 39 23 39 C22.33411865 37.84213989 22.33411865 37.84213989 21.65478516 36.66088867 C20.00439667 33.79225346 18.35309407 30.92414857 16.70117188 28.05639648 C15.98693827 26.81604751 15.2730677 25.57548941 14.55957031 24.3347168 C13.53285999 22.5494134 12.50483853 20.7648707 11.4765625 18.98046875 C10.85861816 17.90692139 10.24067383 16.83337402 9.60400391 15.72729492 C8.46050684 13.78300181 7.25119773 11.8767966 6 10 C5.67 19.57 5.34 29.14 5 39 C3.35 39 1.7 39 0 39 C0 26.13 0 13.26 0 0 Z " fill="#59784F" transform="translate(341,694)"/>
<path d="M0 0 C4.15993342 2.36990146 6.69819304 5.54448146 8.203125 10.140625 C9.62616512 17.67746712 9.88930191 26.1117323 5.8359375 32.82421875 C3.21389127 36.18212957 0.63557506 38.03814165 -3.375 39.375 C-9.60402738 39.88349203 -15.09527152 40.10944209 -20.375 36.375 C-25.47733864 30.84746647 -27.27072166 25.80193476 -27.375 18.375 C-26.79174395 12.21840837 -25.54812191 7.1120573 -21.375 2.375 C-14.7854314 -2.63307213 -7.65180249 -3.39130166 0 0 Z M-19.375 8.375 C-21.94630138 13.64088433 -21.91622715 18.62446153 -21.375 24.375 C-19.75823353 29.05511346 -17.71243651 31.92340545 -13.375 34.375 C-8.89745977 35.17281626 -5.51772332 34.99604528 -1.5 32.8125 C2.73448936 27.95529161 4.20782642 22.98587871 3.98046875 16.65234375 C3.2313652 11.85314188 1.03757658 8.04916484 -2.0625 4.375 C-9.0316751 1.36130266 -14.43467294 2.95268981 -19.375 8.375 Z " fill="#59774E" transform="translate(1176.375,694.625)"/>
<path d="M0 0 C4.15993342 2.36990146 6.69819304 5.54448146 8.203125 10.140625 C9.62616512 17.67746712 9.88930191 26.1117323 5.8359375 32.82421875 C3.21389127 36.18212957 0.63557506 38.03814165 -3.375 39.375 C-9.60402738 39.88349203 -15.09527152 40.10944209 -20.375 36.375 C-25.47733864 30.84746647 -27.27072166 25.80193476 -27.375 18.375 C-26.79174395 12.21840837 -25.54812191 7.1120573 -21.375 2.375 C-14.7854314 -2.63307213 -7.65180249 -3.39130166 0 0 Z M-19.375 8.375 C-21.94630138 13.64088433 -21.91622715 18.62446153 -21.375 24.375 C-19.75823353 29.05511346 -17.71243651 31.92340545 -13.375 34.375 C-8.89745977 35.17281626 -5.51772332 34.99604528 -1.5 32.8125 C2.73448936 27.95529161 4.20782642 22.98587871 3.98046875 16.65234375 C3.2313652 11.85314188 1.03757658 8.04916484 -2.0625 4.375 C-9.0316751 1.36130266 -14.43467294 2.95268981 -19.375 8.375 Z " fill="#59774E" transform="translate(799.375,694.625)"/>
<path d="M0 0 C3.526875 -0.103125 7.05375 -0.20625 10.6875 -0.3125 C11.79053467 -0.35802002 12.89356934 -0.40354004 14.0300293 -0.45043945 C21.24931051 -0.55278909 21.24931051 -0.55278909 25.08203125 2.26953125 C29.07929619 7.96013857 29.07929619 7.96013857 28.828125 11.25390625 C28.54195312 12.39666016 28.54195312 12.39666016 28.25 13.5625 C28.06953125 14.32691406 27.8890625 15.09132813 27.703125 15.87890625 C27 18 27 18 25 21 C25.48082031 21.51046875 25.96164062 22.0209375 26.45703125 22.546875 C28.51737494 25.82256066 28.50960774 28.40752719 28.6875 32.25 C28.75324219 33.51328125 28.81898437 34.7765625 28.88671875 36.078125 C28.92410156 37.04234375 28.96148438 38.0065625 29 39 C27.33388095 39.042721 25.66617115 39.04063832 24 39 C21.78694089 36.78694089 22.54670802 31.78059633 22.37890625 28.78515625 C22.2677106 25.86415567 22.2677106 25.86415567 20 24 C17.42314322 23.69309346 14.95896697 23.48985507 12.375 23.375 C8.724375 23.189375 8.724375 23.189375 5 23 C5 28.28 5 33.56 5 39 C3.35 39 1.7 39 0 39 C0 26.13 0 13.26 0 0 Z M5 4 C5 8.62 5 13.24 5 18 C8.34125 18.12375 8.34125 18.12375 11.75 18.25 C13.62945313 18.31960938 13.62945313 18.31960938 15.546875 18.390625 C19.03974832 18.29124964 19.03974832 18.29124964 21.42578125 16.17578125 C23.53813407 13.25622661 23.52513965 11.52593763 23 8 C21.14657225 5.44050454 20.06243607 5.02081202 17 4 C12.99616868 3.86600297 9.0072645 3.95691113 5 4 Z " fill="#59784E" transform="translate(1055,694)"/>
<path d="M0 0 C3.526875 -0.103125 7.05375 -0.20625 10.6875 -0.3125 C11.79053467 -0.35802002 12.89356934 -0.40354004 14.0300293 -0.45043945 C21.24931051 -0.55278909 21.24931051 -0.55278909 25.08203125 2.26953125 C29.07929619 7.96013857 29.07929619 7.96013857 28.828125 11.25390625 C28.54195312 12.39666016 28.54195312 12.39666016 28.25 13.5625 C28.06953125 14.32691406 27.8890625 15.09132813 27.703125 15.87890625 C27 18 27 18 25 21 C25.48082031 21.51046875 25.96164062 22.0209375 26.45703125 22.546875 C28.51737494 25.82256066 28.50960774 28.40752719 28.6875 32.25 C28.75324219 33.51328125 28.81898438 34.7765625 28.88671875 36.078125 C28.92410156 37.04234375 28.96148438 38.0065625 29 39 C27.33388095 39.042721 25.66617115 39.04063832 24 39 C21.78694089 36.78694089 22.54670802 31.78059633 22.37890625 28.78515625 C22.2677106 25.86415567 22.2677106 25.86415567 20 24 C17.42314322 23.69309346 14.95896697 23.48985507 12.375 23.375 C8.724375 23.189375 8.724375 23.189375 5 23 C5 28.28 5 33.56 5 39 C3.35 39 1.7 39 0 39 C0 26.13 0 13.26 0 0 Z M5 4 C5 8.62 5 13.24 5 18 C8.34125 18.12375 8.34125 18.12375 11.75 18.25 C13.62945313 18.31960938 13.62945313 18.31960938 15.546875 18.390625 C19.03974832 18.29124964 19.03974832 18.29124964 21.42578125 16.17578125 C23.53813407 13.25622661 23.52513965 11.52593763 23 8 C21.14657225 5.44050454 20.06243607 5.02081202 17 4 C12.99616868 3.86600297 9.0072645 3.95691113 5 4 Z " fill="#59784E" transform="translate(738,694)"/>
<path d="M0 0 C3.526875 -0.103125 7.05375 -0.20625 10.6875 -0.3125 C11.79053467 -0.35802002 12.89356934 -0.40354004 14.0300293 -0.45043945 C21.24931051 -0.55278909 21.24931051 -0.55278909 25.08203125 2.26953125 C29.07929619 7.96013857 29.07929619 7.96013857 28.828125 11.25390625 C28.54195312 12.39666016 28.54195312 12.39666016 28.25 13.5625 C28.06953125 14.32691406 27.8890625 15.09132813 27.703125 15.87890625 C27 18 27 18 25 21 C25.48082031 21.51046875 25.96164062 22.0209375 26.45703125 22.546875 C28.51737494 25.82256066 28.50960774 28.40752719 28.6875 32.25 C28.75324219 33.51328125 28.81898438 34.7765625 28.88671875 36.078125 C28.92410156 37.04234375 28.96148438 38.0065625 29 39 C27.33388095 39.042721 25.66617115 39.04063832 24 39 C21.78694089 36.78694089 22.54670802 31.78059633 22.37890625 28.78515625 C22.2677106 25.86415567 22.2677106 25.86415567 20 24 C17.42314322 23.69309346 14.95896697 23.48985507 12.375 23.375 C8.724375 23.189375 8.724375 23.189375 5 23 C5 28.28 5 33.56 5 39 C3.35 39 1.7 39 0 39 C0 26.13 0 13.26 0 0 Z M5 4 C5 8.62 5 13.24 5 18 C8.34125 18.12375 8.34125 18.12375 11.75 18.25 C13.62945313 18.31960938 13.62945313 18.31960938 15.546875 18.390625 C19.03974832 18.29124964 19.03974832 18.29124964 21.42578125 16.17578125 C23.53813407 13.25622661 23.52513965 11.52593763 23 8 C21.14657225 5.44050454 20.06243607 5.02081202 17 4 C12.99616868 3.86600297 9.0072645 3.95691113 5 4 Z " fill="#59784E" transform="translate(524,694)"/>
<path d="M0 0 C3.526875 -0.103125 7.05375 -0.20625 10.6875 -0.3125 C11.79053467 -0.35802002 12.89356934 -0.40354004 14.0300293 -0.45043945 C21.24931051 -0.55278909 21.24931051 -0.55278909 25.08203125 2.26953125 C29.07929619 7.96013857 29.07929619 7.96013857 28.828125 11.25390625 C28.54195313 12.39666016 28.54195313 12.39666016 28.25 13.5625 C28.06953125 14.32691406 27.8890625 15.09132813 27.703125 15.87890625 C27 18 27 18 25 21 C25.48082031 21.51046875 25.96164062 22.0209375 26.45703125 22.546875 C28.51737494 25.82256066 28.50960774 28.40752719 28.6875 32.25 C28.75324219 33.51328125 28.81898438 34.7765625 28.88671875 36.078125 C28.92410156 37.04234375 28.96148437 38.0065625 29 39 C27.33388095 39.042721 25.66617115 39.04063832 24 39 C21.78694089 36.78694089 22.54670802 31.78059633 22.37890625 28.78515625 C22.2677106 25.86415567 22.2677106 25.86415567 20 24 C17.42314322 23.69309346 14.95896697 23.48985507 12.375 23.375 C8.724375 23.189375 8.724375 23.189375 5 23 C5 28.28 5 33.56 5 39 C3.35 39 1.7 39 0 39 C0 26.13 0 13.26 0 0 Z M5 4 C5 8.62 5 13.24 5 18 C8.34125 18.12375 8.34125 18.12375 11.75 18.25 C13.62945312 18.31960938 13.62945312 18.31960938 15.546875 18.390625 C19.03974832 18.29124964 19.03974832 18.29124964 21.42578125 16.17578125 C23.53813407 13.25622661 23.52513965 11.52593763 23 8 C21.14657225 5.44050454 20.06243607 5.02081202 17 4 C12.99616868 3.86600297 9.0072645 3.95691113 5 4 Z " fill="#59784E" transform="translate(417,694)"/>
<path d="M0 0 C1.65 0 3.3 0 5 0 C5 5.61 5 11.22 5 17 C11.6 17 18.2 17 25 17 C25 11.39 25 5.78 25 0 C26.98 0 28.96 0 31 0 C31 12.87 31 25.74 31 39 C29.02 39 27.04 39 25 39 C25 33.06 25 27.12 25 21 C18.4 21 11.8 21 5 21 C5 26.94 5 32.88 5 39 C3.35 39 1.7 39 0 39 C0 26.13 0 13.26 0 0 Z " fill="#536F48" transform="translate(894,694)"/>
<path d="M0 0 C1.65 0 3.3 0 5 0 C5 5.61 5 11.22 5 17 C11.6 17 18.2 17 25 17 C25 11.39 25 5.78 25 0 C26.98 0 28.96 0 31 0 C31 12.87 31 25.74 31 39 C29.02 39 27.04 39 25 39 C25 33.06 25 27.12 25 21 C18.4 21 11.8 21 5 21 C5 26.94 5 32.88 5 39 C3.35 39 1.7 39 0 39 C0 26.13 0 13.26 0 0 Z " fill="#536F48" transform="translate(700,694)"/>
<path d="M0 0 C1.65 0 3.3 0 5 0 C5.01458252 0.82201904 5.02916504 1.64403809 5.04418945 2.4909668 C5.11876333 6.22361323 5.21539512 9.95537459 5.3125 13.6875 C5.33505859 14.98107422 5.35761719 16.27464844 5.38085938 17.60742188 C5.41630859 18.85458984 5.45175781 20.10175781 5.48828125 21.38671875 C5.51446533 22.53358154 5.54064941 23.68044434 5.56762695 24.86206055 C6.04134563 28.30006512 6.94532696 30.22800202 9 33 C12.19233485 34.59616743 15.53461497 34.51466114 19 34 C21.43119623 32.12984906 22.64069173 30.71861655 24 28 C24.15441209 25.89625004 24.24992639 23.78804881 24.31640625 21.6796875 C24.35830078 20.42285156 24.40019531 19.16601562 24.44335938 17.87109375 C24.48267578 16.55238281 24.52199219 15.23367188 24.5625 13.875 C24.60569512 12.53514249 24.64930973 11.19529844 24.69335938 9.85546875 C24.79970981 6.57042185 24.90173808 3.28529719 25 0 C26.65 0 28.3 0 30 0 C30.07455949 4.02009457 30.12879358 8.03991733 30.16479492 12.06054688 C30.17981428 13.42617816 30.20023608 14.79176176 30.22631836 16.15722656 C30.26300137 18.12803905 30.27818551 20.09921408 30.29296875 22.0703125 C30.3086792 23.25383301 30.32438965 24.43735352 30.34057617 25.65673828 C29.82639046 30.70423587 28.18966638 33.92639864 24.4375 37.3125 C19.70198802 40.59093137 15.66158168 40.60175494 10 40 C6.05418338 38.72126313 3.54396647 36.87837924 1.3269043 33.29833984 C-0.17814198 29.55718525 -0.34451937 26.87251069 -0.29296875 22.8515625 C-0.28872391 22.19417084 -0.28447906 21.53677917 -0.28010559 20.85946655 C-0.26344977 18.78087609 -0.2258262 16.70329226 -0.1875 14.625 C-0.17243605 13.20704536 -0.15875065 11.78907536 -0.14648438 10.37109375 C-0.11359038 6.9137411 -0.06190165 3.45696897 0 0 Z " fill="#59784E" transform="translate(984,694)"/>
<path d="M0 0 C1.65 0 3.3 0 5 0 C5.01458252 0.82201904 5.02916504 1.64403809 5.04418945 2.4909668 C5.11876333 6.22361323 5.21539512 9.95537459 5.3125 13.6875 C5.33505859 14.98107422 5.35761719 16.27464844 5.38085938 17.60742188 C5.41630859 18.85458984 5.45175781 20.10175781 5.48828125 21.38671875 C5.51446533 22.53358154 5.54064941 23.68044434 5.56762695 24.86206055 C6.04134563 28.30006512 6.94532696 30.22800202 9 33 C12.19233485 34.59616743 15.53461497 34.51466114 19 34 C21.43119623 32.12984906 22.64069173 30.71861655 24 28 C24.15441209 25.89625004 24.24992639 23.78804881 24.31640625 21.6796875 C24.35830078 20.42285156 24.40019531 19.16601562 24.44335938 17.87109375 C24.48267578 16.55238281 24.52199219 15.23367188 24.5625 13.875 C24.60569512 12.53514249 24.64930973 11.19529844 24.69335938 9.85546875 C24.79970981 6.57042185 24.90173808 3.28529719 25 0 C26.65 0 28.3 0 30 0 C30.07455949 4.02009457 30.12879358 8.03991733 30.16479492 12.06054688 C30.17981428 13.42617816 30.20023608 14.79176176 30.22631836 16.15722656 C30.26300137 18.12803905 30.27818551 20.09921408 30.29296875 22.0703125 C30.3086792 23.25383301 30.32438965 24.43735352 30.34057617 25.65673828 C29.82639046 30.70423587 28.18966638 33.92639864 24.4375 37.3125 C19.70198802 40.59093137 15.66158168 40.60175494 10 40 C6.05418338 38.72126313 3.54396647 36.87837924 1.3269043 33.29833984 C-0.17814198 29.55718525 -0.34451937 26.87251069 -0.29296875 22.8515625 C-0.28872391 22.19417084 -0.28447906 21.53677917 -0.28010559 20.85946655 C-0.26344977 18.78087609 -0.2258262 16.70329226 -0.1875 14.625 C-0.17243605 13.20704536 -0.15875065 11.78907536 -0.14648438 10.37109375 C-0.11359038 6.9137411 -0.06190165 3.45696897 0 0 Z " fill="#59784E" transform="translate(815,694)"/>
<path d="M0 0 C1.65 0 3.3 0 5 0 C5.01458252 0.82201904 5.02916504 1.64403809 5.04418945 2.4909668 C5.11876333 6.22361323 5.21539512 9.95537459 5.3125 13.6875 C5.33505859 14.98107422 5.35761719 16.27464844 5.38085938 17.60742188 C5.41630859 18.85458984 5.45175781 20.10175781 5.48828125 21.38671875 C5.51446533 22.53358154 5.54064941 23.68044434 5.56762695 24.86206055 C6.04134563 28.30006512 6.94532696 30.22800202 9 33 C12.19233485 34.59616743 15.53461497 34.51466114 19 34 C21.43119623 32.12984906 22.64069173 30.71861655 24 28 C24.15441209 25.89625004 24.24992639 23.78804881 24.31640625 21.6796875 C24.35830078 20.42285156 24.40019531 19.16601562 24.44335938 17.87109375 C24.48267578 16.55238281 24.52199219 15.23367188 24.5625 13.875 C24.60569512 12.53514249 24.64930973 11.19529844 24.69335938 9.85546875 C24.79970981 6.57042185 24.90173808 3.28529719 25 0 C26.65 0 28.3 0 30 0 C30.07455949 4.02009457 30.12879358 8.03991733 30.16479492 12.06054688 C30.17981428 13.42617816 30.20023608 14.79176176 30.22631836 16.15722656 C30.26300137 18.12803905 30.27818551 20.09921408 30.29296875 22.0703125 C30.3086792 23.25383301 30.32438965 24.43735352 30.34057617 25.65673828 C29.82639046 30.70423587 28.18966638 33.92639864 24.4375 37.3125 C19.70198802 40.59093137 15.66158168 40.60175494 10 40 C6.05418338 38.72126313 3.54396647 36.87837924 1.3269043 33.29833984 C-0.17814198 29.55718525 -0.34451937 26.87251069 -0.29296875 22.8515625 C-0.28872391 22.19417084 -0.28447906 21.53677917 -0.28010559 20.85946655 C-0.26344977 18.78087609 -0.2258262 16.70329226 -0.1875 14.625 C-0.17243605 13.20704536 -0.15875065 11.78907536 -0.14648438 10.37109375 C-0.11359038 6.9137411 -0.06190165 3.45696897 0 0 Z " fill="#59784E" transform="translate(486,694)"/>
<path d="M0 0 C1.65 0 3.3 0 5 0 C5.01458252 0.82201904 5.02916504 1.64403809 5.04418945 2.4909668 C5.11876333 6.22361323 5.21539512 9.95537459 5.3125 13.6875 C5.33505859 14.98107422 5.35761719 16.27464844 5.38085938 17.60742188 C5.41630859 18.85458984 5.45175781 20.10175781 5.48828125 21.38671875 C5.51446533 22.53358154 5.54064941 23.68044434 5.56762695 24.86206055 C6.04134563 28.30006512 6.94532696 30.22800202 9 33 C12.19233485 34.59616743 15.53461497 34.51466114 19 34 C21.43119623 32.12984906 22.64069173 30.71861655 24 28 C24.15441209 25.89625004 24.24992639 23.78804881 24.31640625 21.6796875 C24.35830078 20.42285156 24.40019531 19.16601562 24.44335938 17.87109375 C24.48267578 16.55238281 24.52199219 15.23367188 24.5625 13.875 C24.60569512 12.53514249 24.64930973 11.19529844 24.69335938 9.85546875 C24.79970981 6.57042185 24.90173808 3.28529719 25 0 C26.65 0 28.3 0 30 0 C30.07455949 4.02009457 30.12879358 8.03991733 30.16479492 12.06054688 C30.17981428 13.42617816 30.20023608 14.79176176 30.22631836 16.15722656 C30.26300137 18.12803905 30.27818551 20.09921408 30.29296875 22.0703125 C30.3086792 23.25383301 30.32438965 24.43735352 30.34057617 25.65673828 C29.82639046 30.70423587 28.18966638 33.92639864 24.4375 37.3125 C19.70198802 40.59093137 15.66158168 40.60175494 10 40 C6.05418338 38.72126313 3.54396647 36.87837924 1.3269043 33.29833984 C-0.17814198 29.55718525 -0.34451937 26.87251069 -0.29296875 22.8515625 C-0.28872391 22.19417084 -0.28447906 21.53677917 -0.28010559 20.85946655 C-0.26344977 18.78087609 -0.2258262 16.70329226 -0.1875 14.625 C-0.17243605 13.20704536 -0.15875065 11.78907536 -0.14648438 10.37109375 C-0.11359038 6.9137411 -0.06190165 3.45696897 0 0 Z " fill="#59784E" transform="translate(379,694)"/>
<path d="M0 0 C10.23 0 20.46 0 31 0 C31 1.32 31 2.64 31 4 C26.71 4 22.42 4 18 4 C18 15.55 18 27.1 18 39 C16.35 39 14.7 39 13 39 C13 27.45 13 15.9 13 4 C8.71 4 4.42 4 0 4 C0 2.68 0 1.36 0 0 Z " fill="#59794E" transform="translate(1102,694)"/>
<path d="M0 0 C10.23 0 20.46 0 31 0 C31 1.32 31 2.64 31 4 C26.71 4 22.42 4 18 4 C18 15.55 18 27.1 18 39 C16.35 39 14.7 39 13 39 C13 27.45 13 15.9 13 4 C8.71 4 4.42 4 0 4 C0 2.68 0 1.36 0 0 Z " fill="#59794E" transform="translate(1019,694)"/>
<path d="M0 0 C10.23 0 20.46 0 31 0 C31 1.32 31 2.64 31 4 C26.71 4 22.42 4 18 4 C18 15.55 18 27.1 18 39 C16.35 39 14.7 39 13 39 C13 27.45 13 15.9 13 4 C8.71 4 4.42 4 0 4 C0 2.68 0 1.36 0 0 Z " fill="#59794E" transform="translate(663,694)"/>
<path d="M0 0 C10.23 0 20.46 0 31 0 C31 1.32 31 2.64 31 4 C26.71 4 22.42 4 18 4 C18 15.55 18 27.1 18 39 C16.35 39 14.7 39 13 39 C13 27.45 13 15.9 13 4 C8.71 4 4.42 4 0 4 C0 2.68 0 1.36 0 0 Z " fill="#59794E" transform="translate(450,694)"/>
<path d="M0 0 C1.65 0 3.3 0 5 0 C5 12.87 5 25.74 5 39 C3.35 39 1.7 39 0 39 C0 26.13 0 13.26 0 0 Z " fill="#59794E" transform="translate(1138,694)"/>
<path d="M0 0 C1.65 0 3.3 0 5 0 C5 12.87 5 25.74 5 39 C3.35 39 1.7 39 0 39 C0 26.13 0 13.26 0 0 Z " fill="#59794E" transform="translate(1092,694)"/>
<path d="M0 0 C1.65 0 3.3 0 5 0 C5 12.87 5 25.74 5 39 C3.35 39 1.7 39 0 39 C0 26.13 0 13.26 0 0 Z " fill="#59794E" transform="translate(560,694)"/>
</svg>
